<?xml version="1.0" standalone="no"?>
<!DOCTYPE svg PUBLIC "-//W3C//DTD SVG 20010904//EN"
 "http://www.w3.org/TR/2001/REC-SVG-20010904/DTD/svg10.dtd">
<svg version="1.0" xmlns="http://www.w3.org/2000/svg"
 width="512.000000pt" height="512.000000pt" viewBox="0 0 512.000000 512.000000"
 preserveAspectRatio="xMidYMid meet">
<metadata>
Created by potrace 1.14, written by Peter Selinger 2001-2017
</metadata>
<g transform="translate(0.000000,512.000000) scale(0.100000,-0.100000)"
fill="#000000" stroke="none">
<path d="M630 2557 l0 -1364 208 1 207 1 3 561 2 561 135 -1 c74 -1 139 -6
143 -11 5 -6 69 -118 142 -250 73 -132 142 -256 153 -275 11 -19 31 -55 45
-80 14 -25 64 -115 112 -200 48 -85 102 -182 120 -215 18 -33 38 -67 43 -76 8
-13 42 -15 248 -15 143 0 239 4 239 9 0 6 -14 33 -32 61 -17 28 -39 65 -48 81
-9 17 -71 120 -137 230 -354 591 -473 794 -473 803 0 5 12 13 26 16 81 21 222
107 312 191 64 59 135 159 165 230 64 153 73 428 19 600 -69 217 -244 378
-492 449 -162 47 -245 53 -702 55 l-438 2 0 -1364z m904 1007 c136 -31 234
-102 281 -200 34 -72 40 -110 39 -249 -1 -174 -35 -268 -125 -349 -95 -87
-204 -113 -476 -114 l-203 0 0 464 0 465 211 -2 c140 -1 232 -6 273 -15z"/>
<path d="M2788 3913 c-2 -4 -3 -618 -3 -1363 l1 -1355 420 1 c230 0 451 3 489
7 401 41 657 209 753 492 29 87 34 116 38 260 4 157 -11 238 -63 345 -48 101
-149 201 -253 252 -88 44 -182 78 -219 79 -25 0 -24 1 9 16 19 9 51 23 70 32
55 23 162 96 195 133 52 57 103 141 126 209 28 81 36 304 13 384 -8 28 -16 58
-19 68 -5 23 -47 109 -60 123 -5 7 -25 32 -44 56 -45 57 -111 108 -196 151
-79 40 -206 82 -280 92 -27 4 -59 10 -70 13 -34 9 -903 14 -907 5z m887 -353
c197 -50 280 -161 279 -375 -1 -216 -88 -337 -272 -381 -59 -14 -471 -20 -473
-7 -3 27 -4 760 -1 769 4 16 401 11 467 -6z m49 -1130 c180 -40 267 -121 311
-289 21 -83 19 -246 -5 -323 -38 -124 -129 -204 -280 -245 -54 -15 -107 -18
-305 -18 l-239 0 -1 440 c0 242 1 444 3 448 2 4 99 7 217 7 169 -1 231 -5 299
-20z"/>
</g>
</svg>
